<svg width="132" height="127" viewBox="0 0 132 127" fill="none" xmlns="http://www.w3.org/2000/svg">
<path d="M23.4115 4.14311C24.4681 5.22508 24.4526 6.95214 23.426 8.06262C11.8332 20.6026 5.55331 36.7385 5.5533 53.8925C5.5533 71.9576 12.6121 88.8935 25.318 101.69C38.118 114.486 55.059 121.448 73.1295 121.448C90.2874 121.448 106.427 115.086 118.97 103.571C120.084 102.549 121.809 102.537 122.89 103.592C123.993 104.668 124.007 106.443 122.877 107.491C109.299 120.091 91.7689 127 73.1295 127C53.5531 127 35.1998 119.379 21.4586 105.548C7.62334 91.8108 0 73.4631 0 53.8925C3.70283e-06 35.257 6.91239 17.7304 19.5184 4.15632C20.5651 3.0292 22.3367 3.04262 23.4115 4.14311Z" fill="#E8362D"/>
<path d="M29.1764 27.1708C32.1881 26.4182 36.329 26.5126 40.3759 27.0771C44.3205 27.6576 48.1581 28.5661 51.86 29.7736C55.2768 30.8881 57.4117 34.1839 57.4117 37.7769C57.4117 44.9111 49.1532 49.4866 42.2261 47.7713C39.9191 47.2 37.5416 46.7894 35.1057 46.5537C33.1292 46.2715 31.2465 47.6825 30.9641 49.9406C30.6818 52.0105 32.2823 53.8927 34.3529 54.0809C42.3528 54.8336 49.6943 57.938 55.7178 62.4542C67.1059 71.1104 73.8816 85.3181 72.3758 100.56C72.1604 102.571 71.808 104.54 71.3342 106.457C69.9668 111.992 64.3656 115.196 58.7978 113.962C58.4887 113.893 58.1807 113.823 57.874 113.75C57.0671 113.559 56.3023 113.225 55.602 112.781C51.9213 110.447 51.0042 105.567 51.9686 101.318C52.3276 99.7367 52.5174 98.0992 52.5174 96.421C52.5174 85.4452 44.4712 76.153 33.9759 74.3261C33.9138 74.3153 33.8506 74.31 33.7876 74.31C32.3758 74.1219 29.5528 73.839 27.7647 73.2745C18.0706 70.1696 11.1057 61.1372 11.1057 50.411C11.1057 44.3894 13.2703 38.8382 17.0349 34.6042C20.2349 31.0288 24.3764 28.394 29.1764 27.1708Z" fill="#E8362D"/>
<path d="M76.171 76.737C75.8694 76.0394 76.4162 75.2509 77.1764 75.2509C88.965 75.2509 99.9319 82.9293 100.215 94.711C100.228 95.2793 100.235 95.8494 100.235 96.421C100.235 98.6481 100.121 100.852 99.9145 103.023C99.5209 107.164 96.795 110.72 92.8622 112.08C92.5112 112.201 92.159 112.32 91.806 112.435C90.2497 112.944 88.5768 112.935 86.9998 112.494L86.8173 112.443C82.1427 111.137 79.5468 106.239 79.9999 101.408C80.8756 92.6967 79.4281 84.2713 76.171 76.737Z" fill="#E8362D"/>
<path d="M34.9172 83.0602C40.0937 83.0602 44.329 87.2942 44.329 92.4691C44.329 97.644 40.0937 101.878 34.9172 101.878C29.7408 101.878 25.5055 97.644 25.5055 92.4691C25.5055 87.2942 29.7408 83.0602 34.9172 83.0602Z" fill="#E8362D"/>
<path d="M120.142 75.2509C123.29 75.2509 126.038 77.4263 126.545 80.5317C126.772 81.922 126.528 83.36 125.822 84.5796C123.809 88.0623 121.424 91.3356 118.738 94.2969C117.588 95.5648 115.932 96.2326 114.22 96.2326C110.655 96.2326 107.793 93.3383 107.499 89.7861C107.425 88.8843 107.335 87.9868 107.23 87.0939C106.52 81.0677 110.904 75.2509 116.974 75.2509H120.142Z" fill="#E8362D"/>
<path d="M40.1035 1.61681C42.4333 0.162628 45.2341 -0.309245 47.9339 0.195628C48.7794 0.353733 49.6211 0.522732 50.4589 0.702481C54.6172 1.59459 57.4117 5.38574 57.4117 9.63736C57.4117 16.3341 50.6663 20.9937 44.0772 19.7867C41.5516 19.3241 38.9834 18.9838 36.379 18.7723C32.8769 18.4879 30.0239 15.6678 30.0239 12.1553C30.0239 10.3906 30.7474 8.69379 32.0847 7.54191C34.6068 5.36948 37.2861 3.37533 40.1035 1.61681Z" fill="#E8362D"/>
<path d="M105.529 2.68481C107.48 2.67963 109.37 3.36704 110.861 4.62448C112.261 5.80509 113.225 7.41623 113.606 9.2003L113.674 9.55957L113.674 9.566L114.083 12.0505C123.176 14.087 129.401 21.6214 131.918 30.8831C132.027 31.2862 132.027 31.7112 131.918 32.1143C129.4 41.4049 123.174 48.9195 114.082 50.9496L113.674 53.4333L113.674 53.4397C113.351 55.366 112.354 57.1155 110.861 58.3748C109.37 59.6322 107.48 60.3187 105.529 60.3135L92.8822 60.3144C91.9573 60.3144 91.1184 59.7725 90.7379 58.9298C90.3575 58.0871 90.5059 57.1 91.1175 56.4066C93.2826 53.9526 94.5871 50.8741 94.8583 47.6372C93.995 47.159 93.1539 46.6433 92.3427 46.0899C90.403 44.7667 88.6008 43.2152 87.0311 41.4709C86.432 43.456 85.5102 45.2876 84.2397 46.8948C81.7371 50.0606 78.0426 52.1594 73.3537 52.9325C72.4456 53.0822 71.5333 52.6886 71.0192 51.9254C69.1475 49.1465 68.3852 44.9072 68.4751 41.0014C68.5501 37.7424 69.2305 34.2016 70.8023 31.4932C69.2461 28.7867 68.572 25.2516 68.4971 21.9979C68.4073 18.095 69.1609 13.8599 71.0127 11.083C71.5255 10.314 72.4416 9.91639 73.3537 10.0668C78.0426 10.8399 81.7371 12.9387 84.2397 16.1045C85.5122 17.7142 86.4348 19.5489 87.0339 21.5376C88.6026 19.7953 90.4039 18.2448 92.3418 16.9213C92.5584 16.7734 92.7774 16.6285 92.998 16.4858C91.9689 13.329 89.5819 9.64226 86.759 6.65144C86.1145 5.9685 85.9376 4.96752 86.3096 4.10534C86.6816 3.24317 87.5312 2.68483 88.4704 2.68481H105.529ZM99.3372 49.689C98.9866 51.7584 98.3107 53.7563 97.3372 55.61H105.538C106.376 55.613 107.187 55.3181 107.827 54.7784C108.467 54.2388 108.894 53.4895 109.032 52.6642L109.224 51.4908C109.169 51.4912 109.114 51.4936 109.059 51.4936C105.819 51.4936 102.5 50.8507 99.3372 49.689ZM74.2324 15.0653C73.5486 16.7998 73.1404 19.2469 73.2012 21.8895C73.2806 25.3443 74.1432 28.3948 75.4668 30.0084C76.1801 30.8783 76.1773 32.1313 75.4603 32.9983C74.1266 34.6112 73.2585 37.6585 73.1791 41.1098C73.1183 43.7545 73.533 46.202 74.225 47.9349C77.0596 47.1753 79.1271 45.7753 80.5477 43.9784C82.1832 41.9094 83.1038 39.1345 83.169 35.7915C82.5988 34.6151 82.1325 33.3872 81.7875 32.1143C81.6784 31.7111 81.6789 31.2862 81.7885 30.8831C82.1335 29.6135 82.5996 28.3885 83.1699 27.2142C83.1058 23.8684 82.1843 21.0912 80.5477 19.0209C79.1283 17.2254 77.0633 15.8253 74.2324 15.0653ZM107.747 16.2524C103.418 16.5319 98.8569 18.1693 94.9962 20.8062C90.9391 23.5772 87.8335 27.3279 86.5118 31.5006C87.8335 35.6861 90.9392 39.4361 94.9952 42.2032C98.855 44.8363 103.417 46.4674 107.747 46.7459C105.138 42.1127 103.749 36.8649 103.749 31.4996C103.749 26.1341 105.138 20.8858 107.747 16.2524ZM115.529 32.9698V31.4996C115.529 30.2006 116.583 29.1474 117.882 29.1474C119.182 29.1474 120.235 30.2005 120.235 31.4996V32.9698C120.235 34.2689 119.182 35.322 117.882 35.322C116.583 35.322 115.529 34.2689 115.529 32.9698ZM93.4447 7.38927C94.9898 9.54844 96.3173 11.8905 97.1818 14.2006C100.968 12.483 105.073 11.5057 109.059 11.5057C109.114 11.5057 109.169 11.5071 109.224 11.5075L109.032 10.3351C108.894 9.50978 108.467 8.76041 107.827 8.22082C107.187 7.68121 106.376 7.38627 105.538 7.38927H93.4447ZM108.455 31.4996C108.455 36.8101 110.059 41.9847 113.038 46.3545C119.914 44.807 124.928 39.2296 127.198 31.5006C124.927 23.7907 119.912 18.1972 113.038 16.6447C110.058 21.0145 108.455 26.1893 108.455 31.4996Z" fill="#E8362D"/>
</svg>
